<svg xmlns="http://www.w3.org/2000/svg" viewBox="0 0 18.81 18.99"><defs><style>.cls-1{fill:#ca8045;}.cls-2{fill:#fbd665;}.cls-3{fill:#fbd04b;}.cls-4{fill:#cf8d5b;}.cls-5{fill:#d08f59;}.cls-6{fill:#d4965c;}.cls-7{fill:#eabc5d;}.cls-8{fill:#d69c6b;}.cls-9{fill:#d8a06a;}.cls-10{fill:#d9a16c;}.cls-11{fill:#e6b240;}.cls-12{fill:#f9db7d;}.cls-13{fill:#fad669;}.cls-14{fill:#dba56e;}.cls-15{fill:#dba66c;}.cls-16{fill:#dca76d;}.cls-17{fill:#d79853;}</style></defs><g id="Layer_2" data-name="Layer 2"><g id="Layer_1-2" data-name="Layer 1"><path class="cls-1" d="M7.31,18.73v-.14a17.2,17.2,0,0,0,3.36.15l.18.15A9.18,9.18,0,0,1,7.31,18.73Z"/><path class="cls-2" d="M2.23,15.55A9.14,9.14,0,0,1,.71,6,8.88,8.88,0,0,1,8.3.09,8.63,8.63,0,0,1,15.11,2,4.64,4.64,0,0,1,15,5.24c-.36.38-.6,0-.83-.17a5.56,5.56,0,0,0-1.49-1.15,6.33,6.33,0,0,0-6.81.2A6.52,6.52,0,0,0,4.33,5.55a6.76,6.76,0,0,0,1,8.89c.2.17.49.34.29.69A4.09,4.09,0,0,1,2.23,15.55Z"/><path class="cls-3" d="M2.23,15.55A10.64,10.64,0,0,0,5.6,15a.6.6,0,0,1,.51,0,6.63,6.63,0,0,0,5.47.5,6.58,6.58,0,0,0,4.18-5.83,7.94,7.94,0,0,0-1-4.11.32.32,0,0,1,0-.25A12.63,12.63,0,0,0,15.11,2a9.16,9.16,0,0,1,3.68,8.35,9.13,9.13,0,0,1-2.72,5.92c-.37.37-.81.67-1.22,1a12.62,12.62,0,0,1-4.28,1.61,14.6,14.6,0,0,1-3.1-.17,10.85,10.85,0,0,1-3.57-1.6h0c-.39-.25-.63-.69-1.09-.86C2.61,16,2.3,15.88,2.23,15.55Z"/><path class="cls-4" d="M10.67,18.74a22.17,22.17,0,0,0,4.18-1.5,8.11,8.11,0,0,1-4,1.65A.27.27,0,0,1,10.67,18.74Z"/><path class="cls-5" d="M3.9,17.08l3.41,1.51c.05,0,.07.07.05.1s0,0-.05,0A6.62,6.62,0,0,1,3.9,17.08Z"/><path class="cls-6" d="M2.81,16.22c.55.05.82.46,1.09.86C3.4,17,3.13,16.56,2.81,16.22Z"/><path class="cls-7" d="M6,15.2,5.6,15A6.79,6.79,0,0,1,3,11,6.52,6.52,0,0,1,4.23,5.36c.63-.37,1-1,1.65-1.37a6.62,6.62,0,0,1,6.61-.29,6.27,6.27,0,0,1,2.25,2,5.22,5.22,0,0,1-.7,2.4,9.15,9.15,0,0,1-1.21,2c-.15.21-.27.52-.63.47a3.26,3.26,0,0,0-2.28-2A3.91,3.91,0,0,1,9,8.2c-.65-.45-.65-.92,0-1.44.77-.27,1.55.09,2.32,0,.42-.94.34-1.14-.62-1.34-.48-.1-.87-.22-.92-.79a.35.35,0,0,0-.37-.38c-.25,0-.35.18-.37.38a1.19,1.19,0,0,1-.74,1c-2,1.1-2,2.45-.24,3.82l.19.16a12.14,12.14,0,0,0,1.85.9c.56.64.39,1.28-.43,1.46a4.6,4.6,0,0,1-1.92,0c-.25,0-.55-.33-.76,0A.75.75,0,0,0,7.1,13c.42.47,1.15.16,1.56.62a.3.3,0,0,1,0,.24A10.5,10.5,0,0,1,6,15.2Z"/><path class="cls-8" d="M12.56,3.84a6.82,6.82,0,0,0-6.78.34c-.18.07-.2,0-.17-.16a6.59,6.59,0,0,1,6.7-.56.77.77,0,0,1,.44.37A.12.12,0,0,1,12.56,3.84Z"/><path class="cls-9" d="M12.56,3.84h.19c.93.18,1.3,1.09,2,1.54a1,1,0,0,1,0,.17c.05.16,0,.21-.18.16A7.54,7.54,0,0,0,12.56,3.84Z"/><path class="cls-10" d="M5.61,4l.17.16C5.19,4.47,5,5.24,4.23,5.36A6.27,6.27,0,0,1,5.61,4Z"/><path class="cls-11" d="M14.6,5.7l.18-.16A6.84,6.84,0,0,1,14,14.28,6.41,6.41,0,0,1,6,15.2a9.12,9.12,0,0,1,2.7-1.35.83.83,0,0,1,.27.42.48.48,0,0,0,.53.32c.29,0,.34-.27.35-.5,0-.61.42-.88.92-1.06s.88-.28,1-.82A4.7,4.7,0,0,0,12,10.94a.5.5,0,0,1,.2-.31,13.62,13.62,0,0,0,2.27-4.27A2.84,2.84,0,0,0,14.6,5.7Z"/><path class="cls-12" d="M12.24,10.63l0,.33a19.08,19.08,0,0,1-2.47,2.37,1,1,0,0,1-1.16.22c-.52-.23-1.14-.06-1.63-.42a1.5,1.5,0,0,1-.1-1.69c.15-.13.25,0,.37,0a3.56,3.56,0,0,0,2.29.31c.75,0,1-.59.51-1.17a10.69,10.69,0,0,0-1.88-.87c-.48-.42-1.09-.66-1.37-1.32A2.08,2.08,0,0,1,7.92,5.56c.52-.25,1-.43.93-1.19C8.8,4,9.18,4,9.46,4s.59,0,.55.43c-.07.6.21.72.76.79,1.18.14,1.27.42.77,1.82A5.13,5.13,0,0,0,9,6.9c-.48.6-.4.91.33,1.25a12.66,12.66,0,0,1,2,.9A1.75,1.75,0,0,1,12.24,10.63Z"/><path class="cls-13" d="M8.67,13.51c.8.05,1.21-.57,1.74-1s1-1.27,1.81-1.56c.12.51-.26.89-.33,1.35a2.28,2.28,0,0,1-1.06.85c-.41.24-.95.37-.82,1.06.05.3,0,.62-.43.64s-.79,0-.89-.51a4,4,0,0,1,0-.5v-.18s-.05-.08,0-.11S8.65,13.51,8.67,13.51Z"/><path class="cls-14" d="M9,6.9a3.11,3.11,0,0,1,2.55.15C10.69,7.12,9.86,6.72,9,6.9Z"/><path class="cls-15" d="M8.15,9.75a3.11,3.11,0,0,1,1.88.87A6,6,0,0,1,8.15,9.75Z"/><path class="cls-16" d="M8.67,13.51c0,.05,0,.1,0,.16-.53-.29-1.26.07-1.69-.54A7.82,7.82,0,0,1,8.67,13.51Z"/><path class="cls-17" d="M10.83,13.16l1.06-.85C11.78,12.9,11.35,13.08,10.83,13.16Z"/></g></g></svg>