<svg xmlns="http://www.w3.org/2000/svg" viewBox="0 0 23.44 11.76"><defs><style>.cls-1{fill:#b4b4b4;}.cls-2{fill:#ccc;}.cls-3{fill:#818181;}.cls-4{fill:#989898;}</style></defs><g id="Layer_2" data-name="Layer 2"><g id="Layer_1-2" data-name="Layer 1"><path class="cls-1" d="M19.13,1.61c1.16,1,2.45,1.9,3,3.49a49.58,49.58,0,0,1,1.28,6.14c.1.46-.1.45-.41.45H18.8c-6.08,0-12.17,0-18.25,0-.16,0-.61.31-.54-.26,1.8-.1,3.6,0,5.4-.05,1,0,1.09-.09.73-1.06C6,10,5.72,9.64,5.81,9.22c.31-.24.65-.14,1-.1l5,.6a4.07,4.07,0,0,0,1.83-.24c2.61-.89,5.24-1.76,7.92-2.64H11.2c-.34,0-.7.08-1-.19a1.19,1.19,0,0,0,0-1.1c-.16-.44-.46-.88-.22-1.4A1.51,1.51,0,0,1,11,3.81c1.6-.27,3.21-.53,4.83-.69a5.71,5.71,0,0,0,2.06-.84A5.31,5.31,0,0,1,19.13,1.61Z"/><path class="cls-2" d="M10.22,6.53c.21.22.49.12.73.12h11.2c-.06.11-.08.19-.12.2l-9,3a4.59,4.59,0,0,1-2-.06c-1.72-.18-3.44-.38-5.15-.58A.62.62,0,0,1,5.46,9c-.9-.85-1.7-1.8-2.68-2.56a1.75,1.75,0,0,1-.42-.55,8,8,0,0,1,3.2-1.41c.59-.2,1.11-.33,1.16-1.07.48,1.41,1.74,2,2.87,2.68C9.8,6.24,10.07,6.29,10.22,6.53Z"/><path class="cls-2" d="M19.13,1.61a7.11,7.11,0,0,1-3.51,1.71,41.5,41.5,0,0,0-5.54.89c-.23.06-.35-.1-.49-.23-.73-.74-1.49-1.46-2.2-2.21A3,3,0,0,1,8.9,1a24.5,24.5,0,0,1,4.38-1,6.73,6.73,0,0,1,2,.32,17.29,17.29,0,0,1,3.33.92A.83.83,0,0,1,19.13,1.61Z"/><path class="cls-3" d="M2.36,5.9A31.2,31.2,0,0,1,5.58,9c.15.36-.16.38-.36.45-.46.16-1,.22-1.43.35A9.55,9.55,0,0,0,.7,11.16c-.31.21-.32.19-.57,0A25,25,0,0,1,2.36,5.9Z"/><path class="cls-4" d="M.13,11.15c.45.18.62-.27.89-.43A13,13,0,0,1,4.84,9.35c.25-.06.64,0,.74-.37l.26.25A8.34,8.34,0,0,1,6.57,11c.08.3.07.56-.36.56H.34A.35.35,0,0,1,0,11.42Z"/><path class="cls-4" d="M7.39,1.77c.28,0,.4.2.56.36.72.69,1.42,1.39,2.13,2.08A6.42,6.42,0,0,0,10.61,6c.15.43,0,.53-.39.49a9.6,9.6,0,0,1-3.31-2.2c-.29-.27-.13-.61-.19-.91A4.26,4.26,0,0,1,7.39,1.77Z"/></g></g></svg>