<svg xmlns="http://www.w3.org/2000/svg" viewBox="0 0 25.48 14.24"><defs><style>.cls-1{font-size:3.1px;fill:#231f20;font-family:BackOut;}.cls-2{fill:#030202;}.cls-3{fill:#050303;}.cls-4{fill:#aa7b64;}.cls-5{fill:#f3d69e;}.cls-6{fill:#9b6c55;}.cls-7{fill:#9a6b55;}.cls-8{fill:#9f735e;}.cls-9{fill:#9c6d56;}.cls-10{fill:#281b14;}.cls-11{fill:#100e08;}.cls-12{fill:#110f09;}.cls-13{fill:#16130c;}.cls-14{fill:#13110a;}.cls-15{fill:#0e0c07;}.cls-16{fill:#15130c;}</style></defs><g id="Layer_2" data-name="Layer 2"><g id="Layer_1-2" data-name="Layer 1"><text class="cls-1" transform="translate(7.5 3.47)">-</text><text class="cls-1" transform="translate(7.5 8.55)">-</text><path class="cls-2" d="M25.48,11.25c-.13.3-.24.61-.4.9a3.67,3.67,0,0,1-3.47,2.08H7.77c-.27,0-.59.1-.76-.24-.07-.76.53-.71,1-.73,1.18,0,2.35,0,3.52,0,.41,0,.47-.11.2-.41-.33-.48-.83-.46-1.32-.47a7.84,7.84,0,0,1-1.28-.06c-.3-.06-.57-.2-.56-.55s.28-.47.58-.53a4.21,4.21,0,0,1,.94-.06c.47,0,.85-.08.86-.68s-.35-.71-.84-.71H7.34a5,5,0,0,1-.77,0c-.36-.05-.69-.15-.67-.61s.35-.5.67-.52c1.29-.07,2.58,0,3.86,0A1.54,1.54,0,0,0,12,7.79c-.54-.24-1.26.16-1.72-.41-.19-.74.32-.81.83-.83,1.24,0,2.49,0,3.74,0,.15,0,.65.21.37-.33a1.26,1.26,0,0,0-1.34-.73,2.41,2.41,0,0,1-.6,0c-.29,0-.59-.1-.6-.48s.23-.5.53-.59a3.08,3.08,0,0,1,.68-.08.52.52,0,0,0,.53-.56A4.26,4.26,0,0,1,15.46,1c-.76,0-1.41,0-2.06,0-.37,0-.86,0-.84-.59.16-.42.52-.37.87-.37,1.46,0,2.92,0,4.38,0a3.73,3.73,0,0,1,3.94,2.26A3.74,3.74,0,0,1,20.69,6.7c1,.18,2.08-.15,2.84.67,0,.74-.5.61-1,.48a2.66,2.66,0,0,0-3,1A2.76,2.76,0,1,0,24.46,10a4.52,4.52,0,0,0-.39-1c-.16-.36-.16-.68.34-.76.79.19.66,1,1.07,1.5Z"/><path class="cls-3" d="M5.88,14c-.15.37-.48.24-.74.25-.66,0-1.32,0-2,0a2.81,2.81,0,0,1-3-2.29c0-.13,0-.29-.18-.34V9.36c.18,0,.16-.21.21-.34A2.88,2.88,0,0,1,3.32,6.76H4a5,5,0,0,1-.78-4.54A2.74,2.74,0,0,1,6,0c1.63,0,3.27,0,4.9,0,.23,0,.53-.1.66.24.08.78-.54.71-1,.73C9.18,1,7.78,1,6.37,1a1.82,1.82,0,0,0-1.68.67c.07.27.31.18.49.19.86,0,1.72,0,2.58,0C8.28,1.9,9,1.79,9,2.54s-.72.68-1.24.7c-.83,0-1.67,0-2.5,0-.2,0-.4,0-.6,0s-.59.08-.61.46.26.54.61.55c1.43,0,2.87,0,4.3,0a11.11,11.11,0,0,1,1.29,0c.39,0,.79.13.81.6s-.45.54-.81.55c-1.49,0-3,0-4.47,0-.23,0-.46,0-.69,0-.54,0-.47.29-.18.6a2,2,0,0,0,1.43.43c.69,0,1.38,0,2.06,0,.4,0,.82,0,.94.56-.14.67-.69.59-1.16.6-1.58,0-3.16,0-4.73,0a2,2,0,0,0-1.82.76c.35.22.73.08,1.09.11a3.53,3.53,0,0,1,.85.1.58.58,0,0,1,.45.56c0,.32-.25.43-.52.48a11.06,11.06,0,0,1-1.63,0c-.48,0-.86.14-.87.71s.39.68.86.68c.89,0,1.78,0,2.67,0,.39,0,.88,0,.88.58s-.49.56-.88.58c-.8,0-1.61,0-2.41,0-.32,0-.65,0-.28.47A1.32,1.32,0,0,0,3,13.24c.71,0,1.42,0,2.13,0C5.5,13.3,6,13.33,5.88,14Z"/><path class="cls-4" d="M4.81,6.3a1.38,1.38,0,0,1-.28-.19c-.18-.19-.46-.38-.38-.63s.49-.19.75-.19c1.81,0,3.61,0,5.41,0,.27,0,.66.09.68-.32s-.39-.4-.69-.4c-1.92,0-3.84,0-5.75,0-.69,0-.81-.23-.81-.84s.15-.81.77-.78C5.74,3,7,3,8.2,2.94c.3,0,.73.08.74-.36s-.45-.42-.77-.42h-4A1.74,1.74,0,0,1,5.94.75c1.6,0,3.21,0,4.81,0,.37,0,.78.07.82-.49a2,2,0,0,0,1,.12c.2.37.53.37.89.37.79,0,1.59,0,2.56,0a4,4,0,0,0-1.39,3.4c.05.54-.39.34-.66.4-.42.1-1.19-.3-1.16.42s.77.31,1.17.29a1.16,1.16,0,0,1,1.38.82,1.08,1.08,0,0,1-.87.27C11.25,6.34,8,6.43,4.81,6.3Z"/><path class="cls-5" d="M24.41,8.2c-.54.3-.15.61,0,.92a3,3,0,0,1-.66,3.6A3,3,0,0,1,19,9.28,3,3,0,0,1,22.5,7.6c.37.1.83.45,1-.23A1.27,1.27,0,0,0,24.41,8.2Z"/><path class="cls-6" d="M5.88,14c0-.49-.38-.49-.74-.49H2.9A1.49,1.49,0,0,1,1.67,13a1.15,1.15,0,0,1,1-.3c2.93,0,5.87.05,8.81,0a.83.83,0,0,1,.48.13l.8.7H7.83c-.38,0-.77,0-.82.5A1.16,1.16,0,0,0,5.88,14Z"/><path class="cls-4" d="M11.91,12.79A4.82,4.82,0,0,1,10.4,13c-2.91,0-5.82,0-8.73,0A1.93,1.93,0,0,1,1,12.12H4.88c.25,0,.48-.06.48-.37s-.24-.35-.48-.35H1.79c-1,0-1.16-.2-1-1.2.06-.52.29-.67.78-.64s1.26,0,1.89,0c.22,0,.5,0,.51-.31s-.25-.4-.53-.4H1.17a1.91,1.91,0,0,1,2-1.35c1.74,0,3.49,0,5.24,0,.35,0,.7,0,.88-.36.38-.26.73-.31,1,.17.68.42,1.45,0,2.18.24a2,2,0,0,1-2.22,1.33A23.79,23.79,0,0,0,7,8.85c-.32,0-.89-.22-.9.33s.6.35.94.36c1.18,0,2.35,0,3.53,0,.47,0,.82.07.66.65s.46,1.26-.63,1.2c-.49,0-1,0-1.46,0a.36.36,0,0,0-.41.35c0,.24.18.35.4.35.6,0,1.2.05,1.8,0A.86.86,0,0,1,11.91,12.79Z"/><path class="cls-5" d="M18.35.74a3,3,0,0,1,3,3,3,3,0,1,1-6,0A3,3,0,0,1,18.35.74Z"/><path class="cls-5" d="M14.87,13.49a3,3,0,0,1-2.95-3.05,3.08,3.08,0,0,1,3.06-3,3,3,0,0,1,3,3A3,3,0,0,1,14.87,13.49Z"/><path class="cls-7" d="M10.27,7.29c-.3-.24-.65-.16-1-.17-.19-.38-.53-.36-.88-.36H6.12A1.63,1.63,0,0,1,4.81,6.3c.25-.35.62-.2.94-.21h9.6l.72.68H11C10.65,6.76,10.26,6.72,10.27,7.29Z"/><path class="cls-8" d="M19.34,7.54a7.06,7.06,0,0,0-.94,1.27L17.32,7.54Z"/><path class="cls-9" d="M18.37,12.26l.88,1.17H17.49A4.79,4.79,0,0,1,18.37,12.26Z"/><path class="cls-10" d="M11.51,2.15c.33.07,1-.2,1,.37s-.68.39-1.09.44c-.12,0-.23,0-.34,0-.31,0-.7,0-.72-.4s.38-.4.68-.41Z"/><path class="cls-11" d="M19.46,10.31a2.23,2.23,0,0,1,.94-1.63c.19-.14.4-.27.59,0s.07.34-.07.53c-1.07,1.39-1,1.62.39,2.76.18.14.28.31.17.51s-.4.18-.62.11A2.46,2.46,0,0,1,19.46,10.31Z"/><path class="cls-12" d="M24,10.51a2.16,2.16,0,0,1-.73,1.66c-.17.17-.39.29-.6.09s-.09-.38.05-.59c.78-1.11.77-1.42,0-2.38-.16-.17-.36-.33-.14-.57s.46-.1.67.07A2.15,2.15,0,0,1,24,10.51Z"/><path class="cls-13" d="M18.12,1.49c.25,0,.48,0,.54.28s-.16.38-.39.45c-1.34.45-1.54.75-1.33,2.12,0,.27,0,.46-.22.54s-.41-.14-.5-.35A2.29,2.29,0,0,1,18.12,1.49Z"/><path class="cls-14" d="M18.15,5.23A1.45,1.45,0,0,0,19.82,4c.07-.28.1-.65.47-.56s.33.45.25.78A2.19,2.19,0,0,1,18.18,6c-.31,0-.8,0-.75-.46S17.91,5.25,18.15,5.23Z"/><path class="cls-15" d="M17.22,10.68A2.21,2.21,0,0,1,16,12.49c-.23.13-.43.2-.59-.05s0-.43.2-.55a1.5,1.5,0,0,0,.87-1.46A1.43,1.43,0,0,0,15.13,9c-.28,0-.53-.1-.5-.44s.35-.29.6-.28A2.29,2.29,0,0,1,17.22,10.68Z"/><path class="cls-16" d="M12.72,10.44a1.14,1.14,0,0,1,0-.43c.11-.29.1-.79.6-.66s.17.5.11.78a1.55,1.55,0,0,0,.59,1.6c.23.19.39.39.14.64s-.42.08-.61-.07A2.16,2.16,0,0,1,12.72,10.44Z"/></g></g></svg>